<svg width="1045" height="255" viewBox="0 0 1045 255" fill="none" xmlns="http://www.w3.org/2000/svg">
<rect width="1045" height="255" fill="#ACD2F5"/>
<path d="M179.785 155.016H175.82V145.254H179.102L194.879 108.777H196.273L212.926 145.254H216.07V155.016H212.105V149H179.785V155.016ZM183.641 145.254H208.168L195.59 117.09L183.641 145.254ZM235.238 118.484C239.814 118.484 243.605 120.143 246.613 123.461C249.348 126.487 250.715 130.069 250.715 134.207C250.715 138.363 249.266 142 246.367 145.117C243.487 148.216 239.777 149.766 235.238 149.766C230.681 149.766 226.953 148.216 224.055 145.117C221.174 142 219.734 138.363 219.734 134.207C219.734 130.087 221.102 126.514 223.836 123.488C226.844 120.152 230.645 118.484 235.238 118.484ZM235.238 122.23C232.066 122.23 229.341 123.406 227.062 125.758C224.784 128.109 223.645 130.953 223.645 134.289C223.645 136.44 224.164 138.445 225.203 140.305C226.242 142.164 227.646 143.604 229.414 144.625C231.182 145.628 233.124 146.129 235.238 146.129C237.353 146.129 239.294 145.628 241.062 144.625C242.831 143.604 244.234 142.164 245.273 140.305C246.312 138.445 246.832 136.44 246.832 134.289C246.832 130.953 245.684 128.109 243.387 125.758C241.108 123.406 238.392 122.23 235.238 122.23ZM286.316 107.137V110.801C284.493 111.111 281.367 111.329 276.938 111.457C273.729 111.566 271.25 111.785 269.5 112.113C267.768 112.423 266.255 113.034 264.961 113.945C263.667 114.839 262.573 116.206 261.68 118.047C260.805 119.87 260.258 121.911 260.039 124.172L259.656 128.355C260.695 124.947 262.4 122.449 264.77 120.863C267.158 119.277 269.801 118.484 272.699 118.484C277.111 118.484 280.793 120.034 283.746 123.133C286.717 126.232 288.203 129.923 288.203 134.207C288.203 138.454 286.727 142.109 283.773 145.172C280.82 148.234 277.129 149.766 272.699 149.766C268.16 149.766 264.314 148.07 261.16 144.68C258.007 141.289 256.43 135.948 256.43 128.656C256.43 123.57 257.004 119.724 258.152 117.117C259.319 114.492 260.65 112.605 262.145 111.457C263.639 110.309 265.572 109.406 267.941 108.75C270.311 108.094 274.75 107.684 281.258 107.52C283.263 107.465 284.949 107.337 286.316 107.137ZM284.32 134.289C284.32 130.99 283.172 128.155 280.875 125.785C278.578 123.415 275.853 122.23 272.699 122.23C269.564 122.23 266.848 123.415 264.551 125.785C262.254 128.155 261.105 130.99 261.105 134.289C261.105 137.57 262.208 140.368 264.414 142.684C266.638 144.98 269.4 146.129 272.699 146.129C276.017 146.129 278.779 144.98 280.984 142.684C283.208 140.368 284.32 137.57 284.32 134.289ZM295.367 119.25H299.168V124.719C300.681 122.641 302.422 121.082 304.391 120.043C306.359 119.004 308.556 118.484 310.98 118.484C315.21 118.484 318.828 120.007 321.836 123.051C324.844 126.095 326.348 129.759 326.348 134.043C326.348 138.418 324.853 142.137 321.863 145.199C318.892 148.243 315.301 149.766 311.09 149.766C308.72 149.766 306.542 149.273 304.555 148.289C302.568 147.305 300.772 145.837 299.168 143.887V159.883H295.367V119.25ZM310.68 122.176C307.362 122.176 304.564 123.333 302.285 125.648C300.025 127.964 298.895 130.844 298.895 134.289C298.895 136.549 299.396 138.582 300.398 140.387C301.419 142.191 302.868 143.622 304.746 144.68C306.642 145.737 308.638 146.266 310.734 146.266C312.794 146.266 314.727 145.737 316.531 144.68C318.354 143.604 319.803 142.109 320.879 140.195C321.954 138.281 322.492 136.276 322.492 134.18C322.492 132.065 321.954 130.06 320.879 128.164C319.822 126.268 318.391 124.801 316.586 123.762C314.781 122.704 312.812 122.176 310.68 122.176ZM337.367 119.25V141.262L359.215 119.25H359.516V149H355.688V127.18L334.004 149H333.539V119.25H337.367ZM371.875 119.25V141.262L393.723 119.25H394.023V149H390.195V127.18L368.512 149H368.047V119.25H371.875ZM371.355 107.301H374.965C375.585 108.249 376.414 108.96 377.453 109.434C378.492 109.908 379.732 110.145 381.172 110.145C382.63 110.145 383.806 109.935 384.699 109.516C385.592 109.096 386.44 108.358 387.242 107.301H390.742C390.341 108.941 389.311 110.318 387.652 111.43C386.012 112.523 383.842 113.07 381.145 113.07C378.465 113.07 376.277 112.533 374.582 111.457C372.887 110.363 371.811 108.978 371.355 107.301ZM418.332 145.746L429.816 119.25H431.812L443.215 145.746H446.797V152.801H443.105V149H418.496V152.965H414.723V145.746H418.332ZM430.746 125.156L422.051 145.746H439.086L430.746 125.156ZM477.039 139.129L480.266 140.824C479.208 142.902 477.987 144.579 476.602 145.855C475.216 147.132 473.658 148.107 471.926 148.781C470.194 149.438 468.234 149.766 466.047 149.766C461.198 149.766 457.406 148.18 454.672 145.008C451.938 141.818 450.57 138.217 450.57 134.207C450.57 130.434 451.728 127.07 454.043 124.117C456.978 120.362 460.906 118.484 465.828 118.484C470.896 118.484 474.943 120.408 477.969 124.254C480.12 126.97 481.214 130.361 481.25 134.426H454.508C454.581 137.889 455.684 140.733 457.816 142.957C459.949 145.163 462.583 146.266 465.719 146.266C467.232 146.266 468.699 146.001 470.121 145.473C471.561 144.944 472.783 144.242 473.785 143.367C474.788 142.492 475.872 141.079 477.039 139.129ZM477.039 131.117C476.529 129.076 475.781 127.444 474.797 126.223C473.831 125.001 472.546 124.017 470.941 123.27C469.337 122.522 467.651 122.148 465.883 122.148C462.966 122.148 460.46 123.087 458.363 124.965C456.832 126.332 455.674 128.383 454.891 131.117H477.039ZM509.551 134.672H492.27V149H488.414V119.25H492.27V131.062H509.551V119.25H513.379V149H509.551V134.672ZM525.738 131.035H529.375C532.273 131.035 534.543 131.263 536.184 131.719C537.824 132.174 539.237 133.186 540.422 134.754C541.607 136.303 542.199 138.09 542.199 140.113C542.199 142.556 541.342 144.652 539.629 146.402C537.915 148.134 535.318 149 531.836 149H521.938V119.25H525.738V131.035ZM525.875 134.535V145.773H530.277C535.454 145.773 538.043 143.951 538.043 140.305C538.043 139.266 537.76 138.245 537.195 137.242C536.648 136.24 535.837 135.538 534.762 135.137C533.704 134.736 531.827 134.535 529.129 134.535H525.875ZM588.93 139.129L592.156 140.824C591.099 142.902 589.878 144.579 588.492 145.855C587.107 147.132 585.548 148.107 583.816 148.781C582.085 149.438 580.125 149.766 577.938 149.766C573.089 149.766 569.297 148.18 566.562 145.008C563.828 141.818 562.461 138.217 562.461 134.207C562.461 130.434 563.618 127.07 565.934 124.117C568.868 120.362 572.797 118.484 577.719 118.484C582.786 118.484 586.833 120.408 589.859 124.254C592.01 126.97 593.104 130.361 593.141 134.426H566.398C566.471 137.889 567.574 140.733 569.707 142.957C571.84 145.163 574.474 146.266 577.609 146.266C579.122 146.266 580.59 146.001 582.012 145.473C583.452 144.944 584.673 144.242 585.676 143.367C586.678 142.492 587.763 141.079 588.93 139.129ZM588.93 131.117C588.419 129.076 587.672 127.444 586.688 126.223C585.721 125.001 584.436 124.017 582.832 123.27C581.228 122.522 579.542 122.148 577.773 122.148C574.857 122.148 572.35 123.087 570.254 124.965C568.723 126.332 567.565 128.383 566.781 131.117H588.93ZM597.488 119.25H601.562L611.516 140.906L621.387 119.25H625.488L611.871 149H611.188L597.488 119.25ZM656.414 139.129L659.641 140.824C658.583 142.902 657.362 144.579 655.977 145.855C654.591 147.132 653.033 148.107 651.301 148.781C649.569 149.438 647.609 149.766 645.422 149.766C640.573 149.766 636.781 148.18 634.047 145.008C631.312 141.818 629.945 138.217 629.945 134.207C629.945 130.434 631.103 127.07 633.418 124.117C636.353 120.362 640.281 118.484 645.203 118.484C650.271 118.484 654.318 120.408 657.344 124.254C659.495 126.97 660.589 130.361 660.625 134.426H633.883C633.956 137.889 635.059 140.733 637.191 142.957C639.324 145.163 641.958 146.266 645.094 146.266C646.607 146.266 648.074 146.001 649.496 145.473C650.936 144.944 652.158 144.242 653.16 143.367C654.163 142.492 655.247 141.079 656.414 139.129ZM656.414 131.117C655.904 129.076 655.156 127.444 654.172 126.223C653.206 125.001 651.921 124.017 650.316 123.27C648.712 122.522 647.026 122.148 645.258 122.148C642.341 122.148 639.835 123.087 637.738 124.965C636.207 126.332 635.049 128.383 634.266 131.117H656.414ZM666.34 119.25H670.25V123.598C671.417 121.884 672.647 120.608 673.941 119.77C675.236 118.913 676.585 118.484 677.988 118.484C679.046 118.484 680.176 118.822 681.379 119.496L679.383 122.723C678.581 122.376 677.906 122.203 677.359 122.203C676.083 122.203 674.853 122.732 673.668 123.789C672.483 124.828 671.581 126.451 670.961 128.656C670.487 130.352 670.25 133.779 670.25 138.938V149H666.34V119.25ZM681.434 119.25H685.48L695.707 142.164L705.633 119.25H709.707L691.961 159.883H687.914L693.656 146.758L681.434 119.25ZM714.902 149V107.766H718.703V124.363C720.307 122.395 722.103 120.927 724.09 119.961C726.077 118.977 728.255 118.484 730.625 118.484C734.836 118.484 738.427 120.016 741.398 123.078C744.388 126.122 745.883 129.823 745.883 134.18C745.883 138.482 744.379 142.155 741.371 145.199C738.363 148.243 734.745 149.766 730.516 149.766C728.091 149.766 725.895 149.246 723.926 148.207C721.957 147.168 720.216 145.609 718.703 143.531V149H714.902ZM730.215 146.074C732.348 146.074 734.316 145.555 736.121 144.516C737.926 143.458 739.357 141.982 740.414 140.086C741.49 138.19 742.027 136.185 742.027 134.07C742.027 131.956 741.49 129.941 740.414 128.027C739.339 126.113 737.889 124.628 736.066 123.57C734.262 122.495 732.329 121.957 730.27 121.957C728.173 121.957 726.177 122.495 724.281 123.57C722.404 124.628 720.954 126.059 719.934 127.863C718.931 129.668 718.43 131.701 718.43 133.961C718.43 137.406 719.56 140.286 721.82 142.602C724.099 144.917 726.897 146.074 730.215 146.074ZM766.965 118.484C771.54 118.484 775.332 120.143 778.34 123.461C781.074 126.487 782.441 130.069 782.441 134.207C782.441 138.363 780.992 142 778.094 145.117C775.214 148.216 771.504 149.766 766.965 149.766C762.408 149.766 758.68 148.216 755.781 145.117C752.901 142 751.461 138.363 751.461 134.207C751.461 130.087 752.828 126.514 755.562 123.488C758.57 120.152 762.371 118.484 766.965 118.484ZM766.965 122.23C763.793 122.23 761.068 123.406 758.789 125.758C756.51 128.109 755.371 130.953 755.371 134.289C755.371 136.44 755.891 138.445 756.93 140.305C757.969 142.164 759.372 143.604 761.141 144.625C762.909 145.628 764.85 146.129 766.965 146.129C769.079 146.129 771.021 145.628 772.789 144.625C774.557 143.604 775.961 142.164 777 140.305C778.039 138.445 778.559 136.44 778.559 134.289C778.559 130.953 777.41 128.109 775.113 125.758C772.835 123.406 770.118 122.23 766.965 122.23ZM819.273 107.766V149H815.5V143.887C813.896 145.837 812.091 147.305 810.086 148.289C808.099 149.273 805.921 149.766 803.551 149.766C799.34 149.766 795.74 148.243 792.75 145.199C789.779 142.137 788.293 138.418 788.293 134.043C788.293 129.759 789.797 126.095 792.805 123.051C795.812 120.007 799.431 118.484 803.66 118.484C806.103 118.484 808.309 119.004 810.277 120.043C812.264 121.082 814.005 122.641 815.5 124.719V107.766H819.273ZM803.961 122.176C801.828 122.176 799.859 122.704 798.055 123.762C796.25 124.801 794.81 126.268 793.734 128.164C792.677 130.06 792.148 132.065 792.148 134.18C792.148 136.276 792.686 138.281 793.762 140.195C794.837 142.109 796.277 143.604 798.082 144.68C799.905 145.737 801.855 146.266 803.934 146.266C806.03 146.266 808.017 145.737 809.895 144.68C811.772 143.622 813.212 142.191 814.215 140.387C815.236 138.582 815.746 136.549 815.746 134.289C815.746 130.844 814.607 127.964 812.328 125.648C810.068 123.333 807.279 122.176 803.961 122.176ZM824.77 119.25H828.816L839.043 142.164L848.969 119.25H853.043L835.297 159.883H831.25L836.992 146.758L824.77 119.25ZM863.926 107.766V138.938H859.961V107.766H863.926ZM861.984 142.984C862.914 142.984 863.707 143.312 864.363 143.969C865.02 144.625 865.348 145.427 865.348 146.375C865.348 147.305 865.02 148.107 864.363 148.781C863.707 149.438 862.914 149.766 861.984 149.766C861.055 149.766 860.262 149.438 859.605 148.781C858.949 148.107 858.621 147.305 858.621 146.375C858.621 145.427 858.949 144.625 859.605 143.969C860.262 143.312 861.055 142.984 861.984 142.984Z" fill="white"/>
</svg>
