<?xml version="1.0" encoding="UTF-8"?>
<svg xmlns="http://www.w3.org/2000/svg" xmlns:xlink="http://www.w3.org/1999/xlink" viewBox="0 0 96 96" width="96px" height="96px">
<g id="surface139450864">
<path style=" stroke:none;fill-rule:nonzero;fill:rgb(100%,92.941177%,47.843137%);fill-opacity:1;" d="M 48 15 C 66.226562 15 81 29.773438 81 48 C 81 66.226562 66.226562 81 48 81 C 29.773438 81 15 66.226562 15 48 C 15 29.773438 29.773438 15 48 15 Z M 59.382812 61.453125 C 59.988281 59.589844 62.835938 41.03125 63.183594 37.371094 C 63.289062 36.265625 62.941406 35.527344 62.257812 35.199219 C 61.425781 34.800781 60.199219 34.996094 58.773438 35.511719 C 56.820312 36.21875 31.835938 46.824219 30.394531 47.4375 C 29.023438 48.019531 27.730469 48.652344 27.730469 49.574219 C 27.730469 50.21875 28.113281 50.582031 29.171875 50.960938 C 30.269531 51.351562 33.035156 52.191406 34.671875 52.640625 C 36.246094 53.074219 38.035156 52.699219 39.042969 52.074219 C 40.105469 51.414062 52.394531 43.191406 53.273438 42.472656 C 54.15625 41.75 54.859375 42.671875 54.136719 43.394531 C 53.417969 44.113281 44.984375 52.300781 43.871094 53.433594 C 42.519531 54.808594 43.480469 56.238281 44.386719 56.808594 C 45.421875 57.460938 52.859375 62.449219 53.980469 63.25 C 55.101562 64.050781 56.238281 64.414062 57.277344 64.414062 C 58.320312 64.414062 58.867188 63.042969 59.382812 61.453125 Z M 59.382812 61.453125 "/>
</g>
</svg>
